<svg width="29" height="29" viewBox="0 0 29 29" fill="none" xmlns="http://www.w3.org/2000/svg">
<path d="M24.1667 14.5604C24.1441 12.7183 23.5955 10.921 22.5856 9.38018C21.5757 7.83939 20.1466 6.61925 18.4665 5.86347C16.7863 5.1077 14.9252 4.84776 13.1024 5.11426C11.2795 5.38077 9.57073 6.16261 8.17731 7.36774C6.78389 8.57286 5.76385 10.1511 5.23732 11.9165C4.7108 13.6819 4.69971 15.561 5.20537 17.3325C5.71103 19.1041 6.71238 20.6941 8.09149 21.9156C9.47058 23.1371 11.17 23.9391 12.9896 24.227V17.3758H10.573V14.5604H12.9896V12.4216C12.9337 11.9243 12.9876 11.4208 13.1475 10.9466C13.3075 10.4724 13.5696 10.0391 13.9153 9.67727C14.261 9.31543 14.6819 9.03387 15.1483 8.85249C15.6147 8.67109 16.1153 8.59428 16.6146 8.62749C17.3394 8.63741 18.0624 8.70204 18.7775 8.82082V11.2375H17.5692C17.3609 11.2112 17.1492 11.2321 16.9501 11.2986C16.7508 11.3651 16.5691 11.4755 16.4183 11.6216C16.2675 11.7678 16.1515 11.946 16.0788 12.143C16.0061 12.3401 15.9787 12.5509 15.9984 12.7599V14.5845H18.6809L18.2459 17.3999H16.0105V24.1666C18.2941 23.8054 20.3727 22.6377 21.8691 20.8752C23.3655 19.1128 24.1806 16.8724 24.1667 14.5604Z" fill="black"/>
</svg>
